<svg xmlns="http://www.w3.org/2000/svg" viewBox="80 140 540 130" fill="none" role="img" aria-label="Inspiro Studio">
  <g fill="#FFFFFF">
    <path d="M116.59 261.36H89.48V148.38h27.11V261.36Z"/>
    <path d="M155.2 197.15h.19c4.33-20.52 14.88-27.49 29.19-27.49 19.39 0 27.49 12.62 27.49 32.01v59.69h-25.61v-52.35c0-9.04-4.33-16.19-14.88-16.19-10.54 0-16.38 5.84-16.38 16.19v52.35h-25.8v-89.25h25.8v25.04Z"/>
    <path d="m222.11 234.23 23.91-4.71c2.45 9.98 7.53 15.82 18.64 15.82 8.29 0 12.43-2.82 12.62-8.47 0-5.08-3.39-7.72-19.39-10.92-25.04-5.27-33.52-13.93-33.52-28.43 0-17.14 12.43-27.49 37.28-27.49 25.61 0 35.97 10.54 39.54 27.12l-24.48 5.46c-2.26-9.6-6.4-14.12-15.25-14.12-7.72 0-11.67 2.64-11.67 7.91 0 4.71 2.26 8.47 19.77 11.49 25.61 5.27 32.95 14.69 32.95 28.06 0 17.51-11.86 28.43-38.41 28.43-30.13 0-39.35-13.74-41.99-30.12Z"/>
    <path d="M366.96 264c-15.25 0-25.04-7.91-29.38-26.74h-.38v49.71h-25.8V172.11h25.8v24.1h.38c4.52-18.83 14.69-26.55 29.94-26.55 21.28 0 32.58 17.7 32.58 46.51 0 30.13-11.49 47.83-33.14 47.83Zm-29.75-46.7c0 14.5 6.97 23.54 18.83 23.54 12.8 0 18.64-9.23 18.64-24.48 0-14.88-5.65-23.54-18.64-23.54-11.86 0-18.83 8.29-18.83 22.78v1.7Z"/>
    <path d="M437.71 162.7h-26.74v-16.76h26.74v16.76Zm-.56 98.66h-25.61v-89.25h25.61v89.25Z"/>
    <path d="M478.6 203.93h.56c4.14-27.12 11.49-31.82 23.91-31.82h4.33v29.37h-9.79c-14.5 0-19.02 3.95-19.02 17.32v42.56h-25.8v-89.25h25.8v31.82Z"/>
    <path d="M518.06 216.74c0-29.56 17.89-47.08 46.32-47.08 28.06 0 46.13 17.51 46.13 47.08 0 29.38-17.51 47.26-46.13 47.26-28.8 0-46.32-17.89-46.32-47.26Zm25.8-.19c0 14.5 6.97 23.91 20.34 23.91s20.71-9.41 20.71-23.91c0-14.31-7.53-23.54-20.52-23.54s-20.53 9.23-20.53 23.54Z"/>
  </g>
</svg>
